Coordinates
version=1
nRows=16
nColumns=63
inDegrees=yes

Units are S.I. units (second, meters, Newtons, ...)
If the header above contains a line with 'inDegrees', this indicates whether rotational values are in degrees (yes) or radians (no).

endheader
time	pelvis_tilt	pelvis_list	pelvis_rotation	pelvis_tx	pelvis_ty	pelvis_tz	hip_flexion_r	hip_adduction_r	hip_rotation_r	knee_angle_r	knee_angle_r_beta	ankle_angle_r	subtalar_angle_r	mtp_angle_r	hip_flexion_l	hip_adduction_l	hip_rotation_l	knee_angle_l	knee_angle_l_beta	ankle_angle_l	subtalar_angle_l	mtp_angle_l	L5_S1_Flex_Ext	L5_S1_Lat_Bending	L5_S1_axial_rotation	L4_L5_Flex_Ext	L4_L5_Lat_Bending	L4_L5_axial_rotation	L3_L4_Flex_Ext	L3_L4_Lat_Bending	L3_L4_axial_rotation	L2_L3_Flex_Ext	L2_L3_Lat_Bending	L2_L3_axial_rotation	L1_L2_Flex_Ext	L1_L2_Lat_Bending	L1_L2_axial_rotation	L1_T12_Flex_Ext	L1_T12_Lat_Bending	L1_T12_axial_rotation	Abs_r3	Abs_r2	Abs_r1	Abs_t1	Abs_t2	neck_flexion	neck_bending	neck_rotation	arm_flex_r	arm_add_r	arm_rot_r	elbow_flex_r	pro_sup_r	wrist_flex_r	wrist_dev_r	arm_flex_l	arm_add_l	arm_rot_l	elbow_flex_l	pro_sup_l	wrist_flex_l	wrist_dev_l
0.000000	-1.034862	-5.730466	90.065852	0.180055	0.922920	0.410637	-8.024404	-2.410294	1.309650	1.621669	0.028303	16.567381	3.212467	0.000000	-7.590392	-0.348009	-12.727775	0.475225	0.008294	21.976970	13.144195	0.000000	-0.188242	-0.189331	1.224045	-0.349584	-0.251810	1.300548	-0.309262	-0.460339	1.300548	-0.215141	-0.460339	1.071039	-0.174801	-0.386083	0.994536	-0.107561	-0.293273	0.918034	-1.344592	-2.141748	6.807770	0.000000	0.000000	23.219667	-1.416417	-5.573944	15.849963	-6.081307	58.734577	49.249734	2.928148	-18.636511	16.230556	26.467129	-5.709779	76.007822	46.046460	89.194991	-12.997676	-2.198704
0.017241	-0.932135	-6.171896	90.232162	0.180014	0.922488	0.413209	-7.297360	-2.250001	2.570625	1.652909	0.028849	16.517824	1.571414	0.000000	-6.788242	-0.514890	-13.332978	0.664563	0.011599	22.246132	14.000105	0.000000	-0.151713	-0.181887	1.363865	-0.281746	-0.241909	1.449106	-0.249249	-0.442239	1.449106	-0.173393	-0.442239	1.193382	-0.140880	-0.370903	1.108140	-0.086689	-0.281742	1.022899	-1.083669	-2.057539	7.585407	0.000000	0.000000	23.397265	-1.984049	-6.779143	15.514079	-6.365384	57.878100	49.515285	2.819906	-18.371262	17.165842	27.702165	-5.156909	78.754500	45.813152	89.150915	-12.221087	-1.405898
0.034483	-0.850852	-6.541621	90.393550	0.179946	0.922127	0.415607	-6.679148	-2.121810	3.475572	1.691817	0.029528	16.454119	0.335662	0.000000	-6.101752	-0.647840	-13.745302	0.851920	0.014869	22.425241	14.556852	0.000000	-0.123467	-0.175595	1.474235	-0.229291	-0.233542	1.566374	-0.202844	-0.426942	1.566374	-0.141110	-0.426942	1.289955	-0.114651	-0.358074	1.197816	-0.070549	-0.271997	1.105676	-0.881913	-1.986368	8.199251	0.000000	0.000000	23.561816	-2.463911	-7.754524	15.182372	-6.634824	57.072426	49.853176	2.722536	-18.319126	17.855720	28.696432	-4.706465	80.850403	45.634764	89.113745	-11.526634	-0.783925
0.051724	-0.788143	-6.843838	90.550090	0.179855	0.921832	0.417824	-6.163404	-2.021676	4.060088	1.737114	0.030318	16.380970	-0.534066	0.000000	-5.524866	-0.750895	-13.982662	1.034968	0.018064	22.525201	14.846144	0.000000	-0.102739	-0.170238	1.557381	-0.190797	-0.226417	1.654717	-0.168791	-0.413918	1.654717	-0.117421	-0.413918	1.362708	-0.095404	-0.347150	1.265372	-0.058705	-0.263699	1.168035	-0.733857	-1.925770	8.661683	0.000000	0.000000	23.709404	-2.862838	-8.517829	14.854183	-6.888140	56.311350	50.254437	2.635061	-18.456147	18.322328	29.470009	-4.351358	82.355910	45.509257	89.083113	-10.909709	-0.313040
0.068966	-0.741140	-7.082741	90.701857	0.179746	0.921600	0.419858	-5.743766	-1.945558	4.359769	1.787523	0.031198	16.303081	-1.077044	0.000000	-5.051530	-0.828089	-14.062970	1.211374	0.021142	22.556915	14.899690	0.000000	-0.088765	-0.165598	1.615528	-0.164845	-0.220245	1.716499	-0.145832	-0.402635	1.716499	-0.101449	-0.402635	1.413587	-0.082427	-0.337688	1.312617	-0.050720	-0.256511	1.211646	-0.634038	-1.873278	8.985083	0.000000	0.000000	23.836112	-3.187667	-9.086797	14.528851	-7.123846	55.588671	50.710094	2.556504	-18.758372	18.587802	30.042978	-4.084501	83.331401	45.434593	89.058652	-10.365704	0.026499
0.086207	-0.706974	-7.262529	90.848922	0.179623	0.921426	0.421702	-5.413871	-1.889411	4.410212	1.841768	0.032145	16.225155	-1.332549	0.000000	-4.675687	-0.883456	-14.004141	1.378810	0.024065	22.531287	14.749201	0.000000	-0.080778	-0.161456	1.650904	-0.150013	-0.214737	1.754085	-0.132711	-0.392565	1.754085	-0.092321	-0.392565	1.444541	-0.075011	-0.329242	1.341359	-0.046157	-0.250096	1.238178	-0.576991	-1.826425	9.181831	0.000000	0.000000	23.938024	-3.445234	-9.479171	14.205715	-7.340453	54.898184	51.211174	2.485888	-19.201844	18.674281	30.435416	-3.898807	83.837255	45.408735	89.039993	-9.890011	0.254433
0.103448	-0.682776	-7.387399	90.991360	0.179492	0.921306	0.423353	-5.167357	-1.849194	4.247012	1.898569	0.033136	16.151896	-1.339856	0.000000	-4.391283	-0.921034	-13.824088	1.534946	0.026790	22.459219	14.426386	0.000000	-0.078015	-0.157595	1.665733	-0.144881	-0.209601	1.769841	-0.128170	-0.383176	1.769841	-0.089163	-0.383176	1.457516	-0.072444	-0.321367	1.353408	-0.044578	-0.244114	1.249300	-0.557250	-1.782744	9.264307	0.000000	0.000000	24.011222	-3.642373	-9.712691	13.884115	-7.536477	54.233688	51.748704	2.422239	-19.762608	18.603901	30.667403	-3.787187	83.933853	45.429643	89.026769	-9.478023	0.390506
0.120690	-0.665676	-7.461546	91.129243	0.179356	0.921237	0.424804	-4.997863	-1.820864	3.905766	1.956651	0.034150	16.088007	-1.138241	0.000000	-4.192261	-0.944855	-13.540726	1.677449	0.029277	22.351616	13.962956	0.000000	-0.079709	-0.153796	1.662242	-0.148027	-0.204548	1.766132	-0.130954	-0.373939	1.766132	-0.091099	-0.373939	1.454462	-0.074018	-0.313620	1.350572	-0.045546	-0.238230	1.246681	-0.569352	-1.739769	9.244891	0.000000	0.000000	24.051789	-3.785922	-9.805098	13.563392	-7.710429	53.588978	52.313713	2.364578	-20.416710	18.398800	30.759019	-3.742554	83.681574	45.495281	89.018614	-9.125131	0.454460
0.137931	-0.652807	-7.489167	91.262646	0.179220	0.921214	0.426053	-4.899024	-1.800376	3.422071	2.014735	0.035164	16.038193	-0.766981	0.000000	-4.072567	-0.958955	-13.171967	1.803992	0.031486	22.219381	13.390618	0.000000	-0.085096	-0.149841	1.642657	-0.158031	-0.199289	1.745323	-0.139804	-0.364324	1.745323	-0.097256	-0.364324	1.437325	-0.079020	-0.305556	1.334658	-0.048624	-0.232104	1.231992	-0.607831	-1.695033	9.135963	0.000000	0.000000	24.055810	-3.882715	-9.774133	13.242883	-7.860824	52.957853	52.897227	2.311931	-21.140194	18.081114	30.730344	-3.757821	83.140797	45.603609	89.015158	-8.826728	0.466038
0.155172	-0.641298	-7.474460	91.391642	0.179090	0.921232	0.427094	-4.864479	-1.783689	2.831522	2.071543	0.036155	16.007157	-0.265349	0.000000	-4.026145	-0.967370	-12.735726	1.912243	0.033375	22.073417	12.741085	0.000000	-0.093411	-0.145513	1.609203	-0.173473	-0.193532	1.709778	-0.153464	-0.353800	1.709778	-0.106759	-0.353800	1.408053	-0.086741	-0.296730	1.307477	-0.053375	-0.225399	1.206902	-0.667222	-1.646069	8.949904	0.000000	0.000000	24.019366	-3.939588	-9.637536	12.921930	-7.986174	52.334110	53.490273	2.263320	-21.909106	17.672982	30.601457	-3.825900	82.371903	45.752591	89.016034	-8.578207	0.444981
0.172414	-0.628281	-7.421620	91.516305	0.178969	0.921288	0.427921	-4.887865	-1.766760	2.169716	2.125799	0.037102	15.999603	0.327376	0.000000	-4.046941	-0.974134	-12.249916	1.999873	0.034904	21.924628	12.046064	0.000000	-0.103888	-0.140593	1.564107	-0.192930	-0.186988	1.661864	-0.170677	-0.341837	1.661864	-0.118734	-0.341837	1.368594	-0.096470	-0.286696	1.270837	-0.059362	-0.217778	1.173080	-0.742061	-1.590411	8.699094	0.000000	0.000000	23.938542	-3.963378	-9.413050	12.599871	-8.084993	51.711544	54.083879	2.217769	-22.699490	17.196540	30.392438	-3.939703	81.435269	45.940187	89.020875	-8.374958	0.411034
0.189655	-0.603208	-7.324556	91.638353	0.178847	0.921386	0.428441	-4.971136	-1.738973	1.479185	2.178478	0.038022	16.074622	0.968699	0.000000	-4.140059	-0.991169	-11.816360	2.048129	0.035747	21.869976	11.488266	0.000000	-0.114718	-0.133730	1.500422	-0.213042	-0.177861	1.594198	-0.188470	-0.325151	1.594198	-0.131111	-0.325151	1.312869	-0.106527	-0.272702	1.219093	-0.065550	-0.207148	1.125316	-0.819416	-1.512780	8.344896	0.000000	0.000000	23.772387	-3.950290	-9.091361	12.323756	-8.129307	51.148864	54.617867	2.185188	-23.321723	16.650373	30.114702	-4.093533	80.419595	46.129638	89.028330	-8.266313	0.384315
0.206897	-0.571917	-7.195544	91.755458	0.178782	0.921553	0.428730	-5.098066	-1.700914	0.831479	2.221646	0.038775	16.200357	1.575170	0.000000	-4.293025	-1.015859	-11.355437	2.063035	0.036007	21.813777	10.956956	0.000000	-0.126776	-0.126374	1.440453	-0.235436	-0.168078	1.530481	-0.208280	-0.307267	1.530481	-0.144892	-0.307267	1.260396	-0.117724	-0.257703	1.170368	-0.072440	-0.195754	1.080340	-0.905549	-1.429573	8.011368	0.000000	0.000000	23.542273	-3.930923	-8.764029	12.005555	-8.130327	50.484462	55.105004	2.109272	-23.906092	16.179419	29.845185	-4.259592	79.489837	46.341339	89.040824	-8.147813	0.440128
0.224138	-0.523240	-7.039585	91.865778	0.178757	0.921770	0.428759	-5.264985	-1.640732	0.256116	2.254661	0.039351	16.361128	2.102651	0.000000	-4.503640	-1.058079	-10.871572	2.044575	0.035685	21.757864	10.442844	0.000000	-0.138496	-0.116941	1.382694	-0.257202	-0.155532	1.469113	-0.227536	-0.284331	1.469113	-0.158288	-0.284331	1.209857	-0.128608	-0.238467	1.123439	-0.079137	-0.181142	1.037021	-0.989267	-1.322863	7.690130	0.000000	0.000000	23.246540	-3.915897	-8.420262	11.662222	-8.101044	49.779724	55.557663	2.006196	-24.472234	15.797882	29.579236	-4.433451	78.652940	46.586567	89.057563	-7.991627	0.611677
0.241379	-0.458826	-6.875146	91.975935	0.178767	0.921986	0.428557	-5.456178	-1.558558	-0.203579	2.268389	0.039591	16.542453	2.497454	0.000000	-4.746696	-1.118230	-10.360881	1.999752	0.034902	21.715861	9.940492	0.000000	-0.147805	-0.105809	1.324889	-0.274488	-0.140725	1.407694	-0.242828	-0.257263	1.407694	-0.168926	-0.257263	1.159278	-0.137251	-0.215765	1.076472	-0.084456	-0.163898	0.993666	-1.055755	-1.196928	7.368633	0.000000	0.000000	22.914308	-3.910996	-8.078771	11.261846	-8.034009	48.966263	56.018245	1.913248	-25.130083	15.413041	29.309119	-4.621207	77.902304	46.882605	89.076787	-7.869124	0.877466
0.258621	-0.378866	-6.703910	92.063896	0.178819	0.922194	0.428156	-5.660408	-1.457712	-0.516528	2.277739	0.039754	16.710783	2.748277	0.000000	-5.018826	-1.194260	-9.890420	1.932868	0.033735	21.691192	9.495104	0.000000	-0.154015	-0.093240	1.267755	-0.286022	-0.124009	1.346989	-0.253032	-0.226703	1.346989	-0.176024	-0.226703	1.109285	-0.143019	-0.190135	1.030051	-0.088004	-0.144429	0.950816	-1.100115	-1.054748	7.050870	0.000000	0.000000	22.527215	-3.915833	-7.763746	10.859626	-7.958699	48.139414	56.466074	1.755381	-25.796732	15.145750	29.055562	-4.821235	77.255232	47.219358	89.095332	-7.730169	1.258486
